# xmcd
#
# Track frame offsets:
#	150
#	22260
#	40350
#	66425
#	83190
#	110600
#	120447
#	149742
#	166805
#	189860
#	231280
#
# Disc length: 3446 seconds
#
# Revision: 2
# Processed by: cddbd v1.5.1PL2 Copyright (c) Steve Scherf et al.
# Submitted via: dBpowerAMP V4.0
#
DISCID=9b0d740b
DTITLE=Jorma Kaukonen Trio - Live
DYEAR=2000
DGENRE=Blues
TTITLE0=True Religion
TTITLE1=How Long Blues
TTITLE2=Death Don't Have no Mercy
TTITLE3=Do Not go Gentle
TTITLE4=I See The Light
TTITLE5=Embryoinc Journey
TTITLE6=Good Shepherd
TTITLE7=San Francisco Bay Blues
TTITLE8=I Know You Rider
TTITLE9=Just my Way
TTITLE10=Friend of The Devil
EXTD=
EXTT0=
EXTT1=
EXTT2=
EXTT3=
EXTT4=
EXTT5=
EXTT6=
EXTT7=
EXTT8=
EXTT9=
EXTT10=
PLAYORDER=
